<mxfile host="65bd71144e">
    <diagram id="b46ZKi2-eZIJKDwg9zyB" name="Page-1">
        <mxGraphModel dx="1358" dy="1195" grid="1" gridSize="10" guides="1" tooltips="1" connect="1" arrows="1" fold="1" page="1" pageScale="1" pageWidth="827" pageHeight="1169" math="0" shadow="0">
            <root>
                <mxCell id="0"/>
                <mxCell id="1" parent="0"/>
                <mxCell id="3" value="" style="rounded=0;whiteSpace=wrap;html=1;strokeColor=#3399FF;strokeWidth=3;fillColor=none;" vertex="1" parent="1">
                    <mxGeometry x="50" y="730" width="590" height="100" as="geometry"/>
                </mxCell>
                <mxCell id="4" value="&lt;font style=&quot;font-size: 16px&quot;&gt;&lt;font color=&quot;#33ff33&quot; style=&quot;font-weight: bold&quot;&gt;NAVBAR&lt;/font&gt;&lt;br&gt;&lt;font color=&quot;#ff9999&quot;&gt;sticky&lt;/font&gt;&lt;/font&gt;" style="text;html=1;strokeColor=none;fillColor=none;align=center;verticalAlign=middle;whiteSpace=wrap;rounded=0;" vertex="1" parent="1">
                    <mxGeometry x="710" y="194" width="90" height="60" as="geometry"/>
                </mxCell>
                <mxCell id="5" value="&lt;font style=&quot;font-size: 16px&quot; color=&quot;#80ff00&quot;&gt;&lt;b&gt;ROUTED &lt;br&gt;(MAIN) PAGE&lt;/b&gt;&lt;/font&gt;" style="text;html=1;strokeColor=none;fillColor=none;align=center;verticalAlign=middle;whiteSpace=wrap;rounded=0;" vertex="1" parent="1">
                    <mxGeometry x="640" y="550" width="230" height="60" as="geometry"/>
                </mxCell>
                <mxCell id="6" value="&lt;font style=&quot;font-size: 16px&quot;&gt;&lt;b&gt;&lt;font color=&quot;#33ff33&quot;&gt;FOOTER&lt;br&gt;&lt;/font&gt;&lt;/b&gt;&lt;br&gt;&lt;/font&gt;" style="text;html=1;strokeColor=none;fillColor=none;align=center;verticalAlign=middle;whiteSpace=wrap;rounded=0;" vertex="1" parent="1">
                    <mxGeometry x="680" y="756" width="130" height="60" as="geometry"/>
                </mxCell>
                <mxCell id="7" value="" style="rounded=0;whiteSpace=wrap;html=1;strokeColor=#3399FF;strokeWidth=3;fillColor=none;" vertex="1" parent="1">
                    <mxGeometry x="51" y="182" width="589" height="60" as="geometry"/>
                </mxCell>
                <mxCell id="8" value="" style="rounded=0;whiteSpace=wrap;html=1;strokeWidth=3;fillColor=none;strokeColor=#FF0000;" vertex="1" parent="1">
                    <mxGeometry x="50" y="245" width="590" height="475" as="geometry"/>
                </mxCell>
                <mxCell id="9" value="" style="strokeWidth=2;html=1;shape=mxgraph.flowchart.annotation_2;align=left;labelPosition=right;pointerEvents=1;fillColor=none;rotation=-180;" vertex="1" parent="1">
                    <mxGeometry x="649" y="176" width="50" height="70" as="geometry"/>
                </mxCell>
                <mxCell id="10" value="" style="strokeWidth=2;html=1;shape=mxgraph.flowchart.annotation_2;align=left;labelPosition=right;pointerEvents=1;fillColor=none;rotation=-180;" vertex="1" parent="1">
                    <mxGeometry x="660" y="265" width="50" height="445" as="geometry"/>
                </mxCell>
                <mxCell id="11" value="" style="strokeWidth=2;html=1;shape=mxgraph.flowchart.annotation_2;align=left;labelPosition=right;pointerEvents=1;fillColor=none;rotation=-180;" vertex="1" parent="1">
                    <mxGeometry x="650" y="736" width="50" height="100" as="geometry"/>
                </mxCell>
                <mxCell id="13" value="&lt;font style=&quot;font-size: 30px&quot;&gt;clickable image&lt;br&gt;routed to another page&lt;br&gt;&lt;/font&gt;" style="rounded=0;whiteSpace=wrap;html=1;strokeWidth=3;fillColor=none;" vertex="1" parent="1">
                    <mxGeometry x="380" y="440" width="220" height="230" as="geometry"/>
                </mxCell>
                <mxCell id="14" value="LINK&lt;span style=&quot;white-space: pre&quot;&gt;&#9;&lt;/span&gt;&lt;span style=&quot;white-space: pre&quot;&gt;&#9;&lt;/span&gt;LINK&lt;span style=&quot;white-space: pre&quot;&gt;&#9;&lt;/span&gt;&lt;span style=&quot;white-space: pre&quot;&gt;&#9;&lt;/span&gt;LINK&lt;span style=&quot;white-space: pre&quot;&gt;&#9;&lt;/span&gt;&lt;span style=&quot;white-space: pre&quot;&gt;&#9;&lt;/span&gt;LINK ..." style="text;html=1;strokeColor=none;fillColor=none;align=center;verticalAlign=middle;whiteSpace=wrap;rounded=0;" vertex="1" parent="1">
                    <mxGeometry x="280" y="205" width="310" height="20" as="geometry"/>
                </mxCell>
                <mxCell id="19" value="" style="ellipse;whiteSpace=wrap;html=1;aspect=fixed;strokeWidth=3;fillColor=#f5f5f5;fontColor=#333333;strokeColor=#66FF66;" vertex="1" parent="1">
                    <mxGeometry x="580" y="748.5" width="35" height="35" as="geometry"/>
                </mxCell>
                <mxCell id="20" value="" style="ellipse;whiteSpace=wrap;html=1;aspect=fixed;strokeWidth=3;fillColor=#f5f5f5;fontColor=#333333;strokeColor=#66FF66;" vertex="1" parent="1">
                    <mxGeometry x="530" y="748.5" width="35" height="35" as="geometry"/>
                </mxCell>
                <mxCell id="21" value="" style="ellipse;whiteSpace=wrap;html=1;aspect=fixed;strokeWidth=3;fillColor=#f5f5f5;fontColor=#333333;strokeColor=#66FF66;" vertex="1" parent="1">
                    <mxGeometry x="480" y="748.5" width="35" height="35" as="geometry"/>
                </mxCell>
                <mxCell id="22" value="" style="ellipse;whiteSpace=wrap;html=1;aspect=fixed;strokeWidth=3;fillColor=#f5f5f5;fontColor=#333333;strokeColor=#00FF00;" vertex="1" parent="1">
                    <mxGeometry x="425" y="748.5" width="35" height="35" as="geometry"/>
                </mxCell>
                <mxCell id="23" value="&lt;font style=&quot;font-size: 17px&quot;&gt;2021 &amp;amp;copy; M;ss;ng Sem;colon&lt;/font&gt;" style="text;html=1;strokeColor=none;fillColor=none;align=center;verticalAlign=middle;whiteSpace=wrap;rounded=0;" vertex="1" parent="1">
                    <mxGeometry x="260" y="796" width="190" height="20" as="geometry"/>
                </mxCell>
                <mxCell id="24" value="" style="shape=flexArrow;endArrow=classic;html=1;strokeColor=#33FF33;fillColor=#66FF66;" edge="1" parent="1">
                    <mxGeometry width="50" height="50" relative="1" as="geometry">
                        <mxPoint x="650" y="861" as="sourcePoint"/>
                        <mxPoint x="490" y="796" as="targetPoint"/>
                    </mxGeometry>
                </mxCell>
                <mxCell id="25" value="&lt;font color=&quot;#33ff33&quot;&gt;social media icons : Pinterest, FB, Instagram, LinkedId&lt;/font&gt;" style="text;html=1;strokeColor=none;fillColor=none;align=center;verticalAlign=middle;whiteSpace=wrap;rounded=0;" vertex="1" parent="1">
                    <mxGeometry x="600" y="890" width="220" height="20" as="geometry"/>
                </mxCell>
                <mxCell id="26" value="&lt;font style=&quot;font-size: 17px&quot;&gt;navigation links ???&lt;/font&gt;" style="text;html=1;strokeColor=none;fillColor=none;align=center;verticalAlign=middle;whiteSpace=wrap;rounded=0;" vertex="1" parent="1">
                    <mxGeometry x="70" y="748.5" width="190" height="20" as="geometry"/>
                </mxCell>
                <mxCell id="27" value="&lt;font style=&quot;font-size: 18px&quot;&gt;LOGO&lt;/font&gt;" style="text;html=1;strokeColor=none;fillColor=none;align=center;verticalAlign=middle;whiteSpace=wrap;rounded=0;" vertex="1" parent="1">
                    <mxGeometry x="70" y="198" width="60" height="34" as="geometry"/>
                </mxCell>
                <mxCell id="28" value="&lt;font style=&quot;font-size: 100px&quot;&gt;Portfolio&lt;/font&gt;" style="text;html=1;strokeColor=#3700CC;fillColor=#6a00ff;align=center;verticalAlign=middle;whiteSpace=wrap;rounded=0;fontColor=#ffffff;" vertex="1" parent="1">
                    <mxGeometry x="60" y="25" width="470" height="110" as="geometry"/>
                </mxCell>
                <mxCell id="30" value="&lt;font style=&quot;font-size: 36px&quot;&gt;People&lt;/font&gt;" style="text;html=1;strokeColor=none;fillColor=none;align=center;verticalAlign=middle;whiteSpace=wrap;rounded=0;" vertex="1" parent="1">
                    <mxGeometry x="110" y="330" width="110" height="70" as="geometry"/>
                </mxCell>
                <mxCell id="31" value="&lt;font style=&quot;font-size: 36px&quot;&gt;Events&lt;/font&gt;" style="text;html=1;strokeColor=none;fillColor=none;align=center;verticalAlign=middle;whiteSpace=wrap;rounded=0;" vertex="1" parent="1">
                    <mxGeometry x="430" y="320" width="110" height="70" as="geometry"/>
                </mxCell>
                <mxCell id="32" value="&lt;font style=&quot;font-size: 30px&quot;&gt;clickable image&lt;br&gt;routed to another page&lt;br&gt;&lt;/font&gt;" style="rounded=0;whiteSpace=wrap;html=1;strokeWidth=3;fillColor=none;" vertex="1" parent="1">
                    <mxGeometry x="80" y="440" width="220" height="230" as="geometry"/>
                </mxCell>
                <mxCell id="33" value="&lt;font style=&quot;font-size: 16px&quot; color=&quot;#80ff00&quot;&gt;&lt;b&gt;ROUTED &lt;br&gt;(MAIN) PAGE&lt;/b&gt;&lt;/font&gt;" style="text;html=1;strokeColor=none;fillColor=none;align=center;verticalAlign=middle;whiteSpace=wrap;rounded=0;" vertex="1" parent="1">
                    <mxGeometry x="1480" y="340" width="230" height="60" as="geometry"/>
                </mxCell>
                <mxCell id="34" value="" style="rounded=0;whiteSpace=wrap;html=1;strokeWidth=3;fillColor=none;strokeColor=#FF0000;" vertex="1" parent="1">
                    <mxGeometry x="890" y="80" width="590" height="465" as="geometry"/>
                </mxCell>
                <mxCell id="35" value="" style="strokeWidth=2;html=1;shape=mxgraph.flowchart.annotation_2;align=left;labelPosition=right;pointerEvents=1;fillColor=none;rotation=-180;" vertex="1" parent="1">
                    <mxGeometry x="1500" y="100" width="50" height="445" as="geometry"/>
                </mxCell>
                <mxCell id="39" value="&lt;font style=&quot;font-size: 36px&quot;&gt;&lt;u&gt;&lt;b&gt;H2 Street Dance&lt;/b&gt;&lt;/u&gt;&lt;/font&gt;" style="text;html=1;strokeColor=none;fillColor=none;align=center;verticalAlign=middle;whiteSpace=wrap;rounded=0;" vertex="1" parent="1">
                    <mxGeometry x="890" y="330" width="350" height="70" as="geometry"/>
                </mxCell>
                <mxCell id="40" value="&lt;font style=&quot;font-size: 30px&quot;&gt;photo&lt;br&gt;&lt;/font&gt;" style="rounded=0;whiteSpace=wrap;html=1;strokeWidth=3;fillColor=none;" vertex="1" parent="1">
                    <mxGeometry x="910" y="182" width="110" height="109" as="geometry"/>
                </mxCell>
                <mxCell id="41" value="&lt;font style=&quot;font-size: 30px&quot;&gt;photo&lt;br&gt;&lt;/font&gt;" style="rounded=0;whiteSpace=wrap;html=1;strokeWidth=3;fillColor=none;" vertex="1" parent="1">
                    <mxGeometry x="1050" y="182" width="110" height="109" as="geometry"/>
                </mxCell>
                <mxCell id="42" value="&lt;font style=&quot;font-size: 30px&quot;&gt;photo&lt;br&gt;&lt;/font&gt;" style="rounded=0;whiteSpace=wrap;html=1;strokeWidth=3;fillColor=none;" vertex="1" parent="1">
                    <mxGeometry x="1190" y="186" width="110" height="109" as="geometry"/>
                </mxCell>
                <mxCell id="43" value="&lt;font style=&quot;font-size: 30px&quot;&gt;photo&lt;br&gt;&lt;/font&gt;" style="rounded=0;whiteSpace=wrap;html=1;strokeWidth=3;fillColor=none;" vertex="1" parent="1">
                    <mxGeometry x="1330" y="186" width="110" height="109" as="geometry"/>
                </mxCell>
                <mxCell id="44" value="&lt;font style=&quot;font-size: 36px&quot;&gt;&lt;u&gt;&lt;b&gt;H2 Graffity&lt;/b&gt;&lt;/u&gt;&lt;/font&gt;" style="text;html=1;strokeColor=none;fillColor=none;align=center;verticalAlign=middle;whiteSpace=wrap;rounded=0;" vertex="1" parent="1">
                    <mxGeometry x="830" y="100" width="350" height="70" as="geometry"/>
                </mxCell>
                <mxCell id="45" value="&lt;font style=&quot;font-size: 30px&quot;&gt;photo&lt;br&gt;&lt;/font&gt;" style="rounded=0;whiteSpace=wrap;html=1;strokeWidth=3;fillColor=none;" vertex="1" parent="1">
                    <mxGeometry x="910" y="410" width="110" height="109" as="geometry"/>
                </mxCell>
                <mxCell id="46" value="&lt;font style=&quot;font-size: 30px&quot;&gt;photo&lt;br&gt;&lt;/font&gt;" style="rounded=0;whiteSpace=wrap;html=1;strokeWidth=3;fillColor=none;" vertex="1" parent="1">
                    <mxGeometry x="1050" y="410" width="110" height="109" as="geometry"/>
                </mxCell>
                <mxCell id="47" value="&lt;font style=&quot;font-size: 30px&quot;&gt;photo&lt;br&gt;&lt;/font&gt;" style="rounded=0;whiteSpace=wrap;html=1;strokeWidth=3;fillColor=none;" vertex="1" parent="1">
                    <mxGeometry x="1190" y="414" width="110" height="109" as="geometry"/>
                </mxCell>
                <mxCell id="48" value="&lt;font style=&quot;font-size: 30px&quot;&gt;photo&lt;br&gt;&lt;/font&gt;" style="rounded=0;whiteSpace=wrap;html=1;strokeWidth=3;fillColor=none;" vertex="1" parent="1">
                    <mxGeometry x="1330" y="414" width="110" height="109" as="geometry"/>
                </mxCell>
                <mxCell id="49" value="&lt;font style=&quot;font-size: 16px&quot; color=&quot;#80ff00&quot;&gt;&lt;b&gt;ROUTED &lt;br&gt;(MAIN) PAGE&lt;/b&gt;&lt;/font&gt;" style="text;html=1;strokeColor=none;fillColor=none;align=center;verticalAlign=middle;whiteSpace=wrap;rounded=0;" vertex="1" parent="1">
                    <mxGeometry x="1490" y="900" width="230" height="60" as="geometry"/>
                </mxCell>
                <mxCell id="50" value="" style="rounded=0;whiteSpace=wrap;html=1;strokeWidth=3;fillColor=none;strokeColor=#FF0000;" vertex="1" parent="1">
                    <mxGeometry x="900" y="640" width="590" height="465" as="geometry"/>
                </mxCell>
                <mxCell id="51" value="" style="strokeWidth=2;html=1;shape=mxgraph.flowchart.annotation_2;align=left;labelPosition=right;pointerEvents=1;fillColor=none;rotation=-180;" vertex="1" parent="1">
                    <mxGeometry x="1510" y="660" width="50" height="445" as="geometry"/>
                </mxCell>
                <mxCell id="52" value="&lt;font style=&quot;font-size: 36px&quot;&gt;&lt;u&gt;&lt;b&gt;H2 Street music&lt;/b&gt;&lt;/u&gt;&lt;/font&gt;" style="text;html=1;strokeColor=none;fillColor=none;align=center;verticalAlign=middle;whiteSpace=wrap;rounded=0;" vertex="1" parent="1">
                    <mxGeometry x="900" y="890" width="350" height="70" as="geometry"/>
                </mxCell>
                <mxCell id="53" value="&lt;font style=&quot;font-size: 30px&quot;&gt;photo&lt;br&gt;&lt;/font&gt;" style="rounded=0;whiteSpace=wrap;html=1;strokeWidth=3;fillColor=none;" vertex="1" parent="1">
                    <mxGeometry x="920" y="742" width="110" height="109" as="geometry"/>
                </mxCell>
                <mxCell id="54" value="&lt;font style=&quot;font-size: 30px&quot;&gt;photo&lt;br&gt;&lt;/font&gt;" style="rounded=0;whiteSpace=wrap;html=1;strokeWidth=3;fillColor=none;" vertex="1" parent="1">
                    <mxGeometry x="1060" y="742" width="110" height="109" as="geometry"/>
                </mxCell>
                <mxCell id="55" value="&lt;font style=&quot;font-size: 30px&quot;&gt;photo&lt;br&gt;&lt;/font&gt;" style="rounded=0;whiteSpace=wrap;html=1;strokeWidth=3;fillColor=none;" vertex="1" parent="1">
                    <mxGeometry x="1200" y="746" width="110" height="109" as="geometry"/>
                </mxCell>
                <mxCell id="56" value="&lt;font style=&quot;font-size: 30px&quot;&gt;photo&lt;br&gt;&lt;/font&gt;" style="rounded=0;whiteSpace=wrap;html=1;strokeWidth=3;fillColor=none;" vertex="1" parent="1">
                    <mxGeometry x="1340" y="746" width="110" height="109" as="geometry"/>
                </mxCell>
                <mxCell id="57" value="&lt;font style=&quot;font-size: 30px&quot;&gt;photo&lt;br&gt;&lt;/font&gt;" style="rounded=0;whiteSpace=wrap;html=1;strokeWidth=3;fillColor=none;" vertex="1" parent="1">
                    <mxGeometry x="920" y="970" width="110" height="109" as="geometry"/>
                </mxCell>
                <mxCell id="58" value="&lt;font style=&quot;font-size: 30px&quot;&gt;photo&lt;br&gt;&lt;/font&gt;" style="rounded=0;whiteSpace=wrap;html=1;strokeWidth=3;fillColor=none;" vertex="1" parent="1">
                    <mxGeometry x="1060" y="970" width="110" height="109" as="geometry"/>
                </mxCell>
                <mxCell id="59" value="&lt;font style=&quot;font-size: 30px&quot;&gt;photo&lt;br&gt;&lt;/font&gt;" style="rounded=0;whiteSpace=wrap;html=1;strokeWidth=3;fillColor=none;" vertex="1" parent="1">
                    <mxGeometry x="1200" y="974" width="110" height="109" as="geometry"/>
                </mxCell>
                <mxCell id="60" value="&lt;font style=&quot;font-size: 30px&quot;&gt;photo&lt;br&gt;&lt;/font&gt;" style="rounded=0;whiteSpace=wrap;html=1;strokeWidth=3;fillColor=none;" vertex="1" parent="1">
                    <mxGeometry x="1340" y="974" width="110" height="109" as="geometry"/>
                </mxCell>
                <mxCell id="61" value="&lt;font style=&quot;font-size: 36px&quot;&gt;&lt;u&gt;&lt;b&gt;H2 Concerts&lt;/b&gt;&lt;/u&gt;&lt;/font&gt;" style="text;html=1;strokeColor=none;fillColor=none;align=center;verticalAlign=middle;whiteSpace=wrap;rounded=0;" vertex="1" parent="1">
                    <mxGeometry x="850" y="660" width="350" height="70" as="geometry"/>
                </mxCell>
                <mxCell id="62" value="" style="shape=flexArrow;endArrow=classic;html=1;exitX=1;exitY=0.75;exitDx=0;exitDy=0;width=25;endSize=36;endWidth=30;entryX=0;entryY=0;entryDx=0;entryDy=0;fillColor=#ffffff;" edge="1" parent="1" source="13" target="52">
                    <mxGeometry width="50" height="50" relative="1" as="geometry">
                        <mxPoint x="950" y="610" as="sourcePoint"/>
                        <mxPoint x="1040" y="590" as="targetPoint"/>
                        <Array as="points">
                            <mxPoint x="790" y="680"/>
                        </Array>
                    </mxGeometry>
                </mxCell>
                <mxCell id="63" value="" style="shape=flexArrow;endArrow=classic;html=1;exitX=1;exitY=0.75;exitDx=0;exitDy=0;width=25;endSize=36;endWidth=30;fillColor=#ffffff;" edge="1" parent="1">
                    <mxGeometry width="50" height="50" relative="1" as="geometry">
                        <mxPoint x="215" y="414" as="sourcePoint"/>
                        <mxPoint x="870" y="200" as="targetPoint"/>
                        <Array as="points">
                            <mxPoint x="650" y="80"/>
                        </Array>
                    </mxGeometry>
                </mxCell>
                <mxCell id="67" value="" style="rounded=0;whiteSpace=wrap;html=1;fillColor=none;strokeWidth=5;" vertex="1" parent="1">
                    <mxGeometry x="30" y="150" width="620" height="700" as="geometry"/>
                </mxCell>
            </root>
        </mxGraphModel>
    </diagram>
</mxfile>